<svg xmlns="http://www.w3.org/2000/svg" xmlns:xlink="http://www.w3.org/1999/xlink" width="50" height="50" viewBox="0 0 256 256"><g fill="#760e53" fill-rule="nonzero" stroke="none" stroke-dashoffset="0" stroke-linecap="butt" stroke-linejoin="miter" stroke-miterlimit="10" stroke-width="1" font-family="none" font-size="none" font-weight="none" text-anchor="none" style="mix-blend-mode:normal"><g><path d="M41,4h-32c-2.76,0 -5,2.24 -5,5v32c0,2.76 2.24,5 5,5h32c2.76,0 5,-2.24 5,-5v-32c0,-2.76 -2.24,-5 -5,-5zM37,19h-2c-2.14,0 -3,0.5 -3,2v3h5l-1,5h-4v15h-5v-15h-4v-5h4v-3c0,-4 2,-7 6,-7c2.9,0 4,1 4,1z" transform="scale(5.12,5.12)"/></g></g></svg>